<svg xmlns="http://www.w3.org/2000/svg" viewBox="0 0 512 512">
  <defs>
    <radialGradient id="bg" cx="50%" cy="32%" r="80%">
      <stop offset="0%" stop-color="#2a1c5e"/>
      <stop offset="60%" stop-color="#140e33"/>
      <stop offset="100%" stop-color="#0b0820"/>
    </radialGradient>
    <linearGradient id="gold" x1="0" y1="0" x2="1" y2="1">
      <stop offset="0%" stop-color="#f3dca4"/>
      <stop offset="100%" stop-color="#d8a93f"/>
    </linearGradient>
  </defs>
  <rect width="512" height="512" rx="110" fill="url(#bg)"/>
  <circle cx="256" cy="256" r="150" fill="none" stroke="url(#gold)" stroke-width="6" stroke-dasharray="10 14" opacity="0.85"/>
  <path d="M 300 156 a 118 118 0 1 0 0 200 a 96 96 0 1 1 0 -200 z" fill="url(#gold)"/>
  <g fill="#f3dca4">
    <path d="M 358 196 l 7 18 18 7 -18 7 -7 18 -7 -18 -18 -7 18 -7 z"/>
    <path d="M 380 290 l 5 13 13 5 -13 5 -5 13 -5 -13 -13 -5 13 -5 z"/>
    <circle cx="150" cy="140" r="5"/>
    <circle cx="385" cy="135" r="4"/>
    <circle cx="128" cy="370" r="4"/>
  </g>
</svg>
